<?xml version="1.0" encoding="UTF-8" standalone="no"?>
<svg
   xmlns:dc="http://purl.org/dc/elements/1.1/"
   xmlns:cc="http://creativecommons.org/ns#"
   xmlns:rdf="http://www.w3.org/1999/02/22-rdf-syntax-ns#"
   xmlns:svg="http://www.w3.org/2000/svg"
   xmlns="http://www.w3.org/2000/svg"
   height="15mm"
   width="30mm"
   viewBox="0 0 106.29921 53.149604"
   version="1.1"
   id="svg4">
  <defs
     id="defs8" />
  <metadata
     id="metadata2">
    <rdf:RDF>
      <cc:Work
         rdf:about="">
        <dc:format>image/svg+xml</dc:format>
        <dc:type
           rdf:resource="http://purl.org/dc/dcmitype/StillImage" />
        <dc:title></dc:title>
      </cc:Work>
    </rdf:RDF>
  </metadata>
  <path
     style="color:#000000;clip-rule:nonzero;display:inline;overflow:visible;visibility:visible;opacity:1;isolation:auto;mix-blend-mode:normal;color-interpolation:sRGB;color-interpolation-filters:linearRGB;solid-color:#000000;solid-opacity:1;fill:#889b7d;fill-opacity:0.53968257;fill-rule:evenodd;stroke:none;stroke-width:0.2492121px;stroke-linecap:butt;stroke-linejoin:miter;stroke-miterlimit:4;stroke-dasharray:none;stroke-dashoffset:0;stroke-opacity:1;color-rendering:auto;image-rendering:auto;shape-rendering:auto;text-rendering:auto;enable-background:accumulate"
     d="m 12.521476,6.9666244 a 16.051653,42.09757 88.637913 0 0 -0.156689,1.4959809 16.051653,42.09757 88.637913 0 0 2.86451,5.5440627 L 8.7756972,31.890652 17.930108,16.15042 a 16.051653,42.09757 88.637913 0 0 2.666095,1.492312 L 14.306901,41.800237 24.632243,19.354289 a 16.051653,42.09757 88.637913 0 0 2.482235,0.82285 L 24.0492,44.264941 31.790601,21.42289 a 16.051653,42.09757 88.637913 0 0 2.839891,0.564499 l -0.430265,23.942943 5.604475,-23.143674 a 16.051653,42.09757 88.637913 0 0 3.780511,0.384339 l 3.018151,23.896648 3.938951,-23.579417 a 16.051653,42.09757 88.637913 0 0 4.347685,-0.0018 16.051653,42.09757 88.637913 0 0 0.92914,-0.0399 l 4.853184,24.702035 2.755635,-25.208785 A 16.051653,42.09757 88.637913 0 0 68.6288,22.250557 l 7.631817,23.758534 -0.3782,-25.203328 a 16.051653,42.09757 88.637913 0 0 3.694574,-1.017716 l 10.94824,19.344308 -5.908992,-21.12056 a 16.051653,42.09757 88.637913 0 0 4.622552,-2.274127 L 97.523512,32.621246 92.704836,13.315591 A 16.051653,42.09757 88.637913 0 0 96.535517,6.4167915 16.051653,42.09757 88.637913 0 0 96.300548,5.0010423 15.336189,42.097567 88.634874 0 1 54.792321,19.922915 15.336189,42.097567 88.634874 0 1 12.521476,6.9666244 Z"
     id="path4485" />
  <g
     style="fill:#889b7d;fill-opacity:0.56020945"
     transform="matrix(0.3630511,0,0,0.28210795,-118.19575,85.508429)"
     id="g4622">
    <path
       style="color:#000000;clip-rule:nonzero;display:inline;overflow:visible;visibility:visible;opacity:1;isolation:auto;mix-blend-mode:normal;color-interpolation:sRGB;color-interpolation-filters:linearRGB;solid-color:#000000;solid-opacity:1;fill:#889b7d;fill-opacity:0.56020945;fill-rule:evenodd;stroke:none;stroke-width:0.95911896px;stroke-linecap:butt;stroke-linejoin:miter;stroke-miterlimit:4;stroke-dasharray:none;stroke-dashoffset:0;stroke-opacity:1;color-rendering:auto;image-rendering:auto;shape-rendering:auto;text-rendering:auto;enable-background:accumulate"
       d="M 14.57325,0 A 138.59502,72.216397 0 0 0 13.92688,6.71448 138.59502,72.216397 0 0 0 152.52307,78.93127 138.59502,72.216397 0 0 0 291.11744,6.71448 138.59502,72.216397 0 0 0 290.47107,0.32044 138.59502,68.997519 0 0 1 152.52307,62.89307 138.59502,68.997519 0 0 1 14.57325,0 Z"
       id="path4602" />
    <path
       style="fill:#889b7d;fill-opacity:0.56020945;fill-rule:evenodd;stroke:none;stroke-width:0.9375px;stroke-linecap:butt;stroke-linejoin:miter;stroke-opacity:1"
       d="M 41.46312,42.88184 17.30982,156.86568 56.68447,47.70217 Z"
       id="path4604" />
    <path
       id="path4606"
       d="M 62.31848,53.03027 49.15087,169.01579 79.34352,57.28883 Z"
       style="fill:#889b7d;fill-opacity:0.56020945;fill-rule:evenodd;stroke:none;stroke-width:0.9375px;stroke-linecap:butt;stroke-linejoin:miter;stroke-opacity:1" />
    <path
       style="fill:#889b7d;fill-opacity:0.56020945;fill-rule:evenodd;stroke:none;stroke-width:0.83430666px;stroke-linecap:butt;stroke-linejoin:miter;stroke-opacity:1"
       d="M 231.5798,58.5126 268.38497,153.19511 249.885,52.33447 Z"
       id="path4608" />
    <path
       id="path4610"
       d="m 155.04406,74.4503 14.2833,116.03735 11.94929,-119.15616 z"
       style="fill:#889b7d;fill-opacity:0.56020945;fill-rule:evenodd;stroke:none;stroke-width:0.9375px;stroke-linecap:butt;stroke-linejoin:miter;stroke-opacity:1" />
    <path
       style="fill:#889b7d;fill-opacity:0.56020945;fill-rule:evenodd;stroke:none;stroke-width:0.70582551px;stroke-linecap:butt;stroke-linejoin:miter;stroke-opacity:1"
       d="M 23.77765,28.73293 0,111.69192 34.43688,35.50589 Z"
       id="path4612" />
    <path
       id="path4614"
       d="M 86.28483,60.7995 82.40606,177.61847 105.03601,63.55295 Z"
       style="fill:#889b7d;fill-opacity:0.56020945;fill-rule:evenodd;stroke:none;stroke-width:0.9375px;stroke-linecap:butt;stroke-linejoin:miter;stroke-opacity:1" />
    <path
       style="fill:#889b7d;fill-opacity:0.56020945;fill-rule:evenodd;stroke:none;stroke-width:0.9375px;stroke-linecap:butt;stroke-linejoin:miter;stroke-opacity:1"
       d="m 114.72402,67.69301 8.3997,116.39581 16.19941,-113.39592 z"
       id="path4616" />
    <path
       id="path4618"
       d="m 196.58811,68.96643 24.23084,113.60423 1.09326,-120.11913 z"
       style="fill:#889b7d;fill-opacity:0.56020945;fill-rule:evenodd;stroke:none;stroke-width:0.9375px;stroke-linecap:butt;stroke-linejoin:miter;stroke-opacity:1" />
    <path
       style="fill:#889b7d;fill-opacity:0.56020945;fill-rule:evenodd;stroke:none;stroke-width:0.78515512px;stroke-linecap:butt;stroke-linejoin:miter;stroke-opacity:1"
       d="m 264.56307,42.76664 27.4436,81.91013 -14.81322,-91.68055 z"
       id="path4620" />
  </g>
</svg>
