<?xml version="1.0" encoding="UTF-8" standalone="no"?>
<svg
   xmlns:dc="http://purl.org/dc/elements/1.1/"
   xmlns:cc="http://creativecommons.org/ns#"
   xmlns:rdf="http://www.w3.org/1999/02/22-rdf-syntax-ns#"
   xmlns:svg="http://www.w3.org/2000/svg"
   xmlns="http://www.w3.org/2000/svg"
   xmlns:sodipodi="http://sodipodi.sourceforge.net/DTD/sodipodi-0.dtd"
   xmlns:inkscape="http://www.inkscape.org/namespaces/inkscape"
   id="svg4"
   version="1.1"
   viewBox="0 0 47.934138 19.962106"
   width="13.528079mm"
   height="5.63375mm"
   sodipodi:docname="eyelashes_mob.svg"
   inkscape:version="0.92.4 (unknown)"
   inkscape:export-filename="/home/robin/Shortcuts/www/idiomind.com/public/images/eyelashes_mob.svg.png"
   inkscape:export-xdpi="63.464897"
   inkscape:export-ydpi="63.464897">
  <sodipodi:namedview
     pagecolor="#ffffff"
     bordercolor="#BADCFF"
     borderopacity="0.5"
     objecttolerance="10"
     gridtolerance="10"
     guidetolerance="10"
     inkscape:pageopacity="0"
     inkscape:pageshadow="0"
     inkscape:window-width="640"
     inkscape:window-height="480"
     id="namedview29"
     showgrid="false"
     inkscape:zoom="4"
     inkscape:cx="4.4317679"
     inkscape:cy="-33.659523"
     inkscape:current-layer="svg4" />
  <defs
     id="defs8" />
  <metadata
     id="metadata2">
    <rdf:RDF>
      <cc:Work
         rdf:about="">
        <dc:format>image/svg+xml</dc:format>
        <dc:type
           rdf:resource="http://purl.org/dc/dcmitype/StillImage" />
        <dc:title></dc:title>
      </cc:Work>
    </rdf:RDF>
  </metadata>
  <path
     d="m 42.312803,5.7750357 c 1.486975,2.5828188 2.266527,4.2669403 4.418694,6.9548023 M 17.371412,10.745624 c -0.347687,2.856228 -0.226691,4.271118 -0.853705,8.098269 m 14.966202,-8.588342 c 0.714888,2.792977 1.343847,4.078688 2.150728,7.874858 M 6.7938796,6.8980509 C 5.2951956,9.3904136 4.8221616,10.735928 2.6659987,14.014603 M 46.82325,1.1161702 C 40.605678,11.404901 13.39006,16.668883 1.1126256,1.4776819 M 42.312803,5.7750357 c 1.486975,2.5828188 2.266527,4.2669403 4.418694,6.9548023 M 17.371412,10.745624 c -0.347687,2.856228 -0.226691,4.271118 -0.853705,8.098269 m 14.966202,-8.588342 c 0.714888,2.792977 1.343847,4.078688 2.150728,7.874858 M 6.7938796,6.8980509 C 5.2951956,9.3904136 4.8221616,10.735928 2.6659987,14.014603 M 46.82325,1.1161702 C 40.605678,11.404901 13.39006,16.668883 1.1126256,1.4776819"
     style="fill:none;fill-rule:evenodd;stroke:#000000;stroke-width:2.20542526;stroke-linecap:round;stroke-linejoin:round;stroke-miterlimit:4;stroke-dasharray:none;stroke-opacity:0.21511631;paint-order:stroke fill markers"
     id="path865"
     inkscape:connector-curvature="0" />
</svg>
