<?xml version="1.0" encoding="UTF-8" standalone="no"?>
<svg
   xmlns:dc="http://purl.org/dc/elements/1.1/"
   xmlns:cc="http://creativecommons.org/ns#"
   xmlns:rdf="http://www.w3.org/1999/02/22-rdf-syntax-ns#"
   xmlns:svg="http://www.w3.org/2000/svg"
   xmlns="http://www.w3.org/2000/svg"
   id="svg4"
   version="1.1"
   viewBox="0 0 106.01334 53.738078"
   width="29.919321mm"
   height="15.16608mm">
  <defs
     id="defs8" />
  <metadata
     id="metadata2">
    <rdf:RDF>
      <cc:Work
         rdf:about="">
        <dc:format>image/svg+xml</dc:format>
        <dc:type
           rdf:resource="http://purl.org/dc/dcmitype/StillImage" />
        <dc:title></dc:title>
      </cc:Work>
    </rdf:RDF>
  </metadata>
  <path
     id="path4485"
     d="m 15.413604,8.399698 a 39.643133,16.051061 0 0 0 -0.186099,1.4916757 39.643133,16.051061 0 0 0 2.553449,5.6118173 l -6.53654,17.721223 9.023628,-15.512562 a 39.643133,16.051061 0 0 0 2.471219,1.556594 L 16.195508,43.265094 26.494417,21.077499 a 39.643133,16.051061 0 0 0 2.315416,0.882888 L 25.302808,45.96569 33.179549,23.319341 a 39.643133,16.051061 0 0 0 2.65876,0.633313 l -1.022822,23.924517 5.872932,-22.999794 a 39.643133,16.051061 0 0 0 3.548861,0.476067 l 2.224531,23.962025 4.316338,-23.47586 a 39.643133,16.051061 0 0 0 4.092731,0.103869 39.643133,16.051061 0 0 0 0.875674,-0.01731 l 3.931157,24.81173 3.244467,-25.133437 a 39.643133,16.051061 0 0 0 4.913586,-0.562624 l 6.571163,23.936057 0.294296,-25.204126 a 39.643133,16.051061 0 0 0 3.504139,-0.927609 L 88.012334,42.45001 82.994882,21.192909 a 39.643133,16.051061 0 0 0 4.410111,-2.161054 L 94.768158,36.111109 90.730244,16.6948 A 39.643133,16.051061 0 0 0 94.514256,9.8913737 39.643133,16.051061 0 0 0 94.329599,8.4703867 39.643133,15.335622 0 0 1 54.87088,22.378748 39.643133,15.335622 0 0 1 15.413604,8.399698 Z"
     style="color:#000000;clip-rule:nonzero;display:inline;overflow:visible;visibility:visible;opacity:1;isolation:auto;mix-blend-mode:normal;color-interpolation:sRGB;color-interpolation-filters:linearRGB;solid-color:#000000;solid-opacity:1;fill:#889b7d;fill-opacity:0.30890054;fill-rule:evenodd;stroke:none;stroke-width:0.24183357px;stroke-linecap:butt;stroke-linejoin:miter;stroke-miterlimit:4;stroke-dasharray:none;stroke-dashoffset:0;stroke-opacity:1;color-rendering:auto;image-rendering:auto;shape-rendering:auto;text-rendering:auto;enable-background:accumulate" />
  <g
     id="g4622"
     transform="matrix(0.3630511,0,0,0.28210795,-118.19575,86.096905)"
     style="fill:#889b7d;fill-opacity:0.56020945">
    <path
       id="path4602"
       d="M 14.57325,0 A 138.59502,72.216397 0 0 0 13.92688,6.71448 138.59502,72.216397 0 0 0 152.52307,78.93127 138.59502,72.216397 0 0 0 291.11744,6.71448 138.59502,72.216397 0 0 0 290.47107,0.32044 138.59502,68.997519 0 0 1 152.52307,62.89307 138.59502,68.997519 0 0 1 14.57325,0 Z"
       style="color:#000000;clip-rule:nonzero;display:inline;overflow:visible;visibility:visible;opacity:1;isolation:auto;mix-blend-mode:normal;color-interpolation:sRGB;color-interpolation-filters:linearRGB;solid-color:#000000;solid-opacity:1;fill:#889b7d;fill-opacity:0.56020945;fill-rule:evenodd;stroke:none;stroke-width:0.95911896px;stroke-linecap:butt;stroke-linejoin:miter;stroke-miterlimit:4;stroke-dasharray:none;stroke-dashoffset:0;stroke-opacity:1;color-rendering:auto;image-rendering:auto;shape-rendering:auto;text-rendering:auto;enable-background:accumulate" />
    <path
       id="path4604"
       d="M 41.46312,42.88184 17.30982,156.86568 56.68447,47.70217 Z"
       style="fill:#889b7d;fill-opacity:0.56020945;fill-rule:evenodd;stroke:none;stroke-width:0.9375px;stroke-linecap:butt;stroke-linejoin:miter;stroke-opacity:1" />
    <path
       style="fill:#889b7d;fill-opacity:0.56020945;fill-rule:evenodd;stroke:none;stroke-width:0.9375px;stroke-linecap:butt;stroke-linejoin:miter;stroke-opacity:1"
       d="M 62.31848,53.03027 49.15087,169.01579 79.34352,57.28883 Z"
       id="path4606" />
    <path
       id="path4608"
       d="M 231.5798,58.5126 268.38497,153.19511 249.885,52.33447 Z"
       style="fill:#889b7d;fill-opacity:0.56020945;fill-rule:evenodd;stroke:none;stroke-width:0.83430666px;stroke-linecap:butt;stroke-linejoin:miter;stroke-opacity:1" />
    <path
       style="fill:#889b7d;fill-opacity:0.56020945;fill-rule:evenodd;stroke:none;stroke-width:0.9375px;stroke-linecap:butt;stroke-linejoin:miter;stroke-opacity:1"
       d="m 155.04406,74.4503 14.2833,116.03735 11.94929,-119.15616 z"
       id="path4610" />
    <path
       id="path4612"
       d="M 23.77765,28.73293 0,111.69192 34.43688,35.50589 Z"
       style="fill:#889b7d;fill-opacity:0.56020945;fill-rule:evenodd;stroke:none;stroke-width:0.70582551px;stroke-linecap:butt;stroke-linejoin:miter;stroke-opacity:1" />
    <path
       style="fill:#889b7d;fill-opacity:0.56020945;fill-rule:evenodd;stroke:none;stroke-width:0.9375px;stroke-linecap:butt;stroke-linejoin:miter;stroke-opacity:1"
       d="M 86.28483,60.7995 82.40606,177.61847 105.03601,63.55295 Z"
       id="path4614" />
    <path
       id="path4616"
       d="m 114.72402,67.69301 8.3997,116.39581 16.19941,-113.39592 z"
       style="fill:#889b7d;fill-opacity:0.56020945;fill-rule:evenodd;stroke:none;stroke-width:0.9375px;stroke-linecap:butt;stroke-linejoin:miter;stroke-opacity:1" />
    <path
       style="fill:#889b7d;fill-opacity:0.56020945;fill-rule:evenodd;stroke:none;stroke-width:0.9375px;stroke-linecap:butt;stroke-linejoin:miter;stroke-opacity:1"
       d="m 196.58811,68.96643 24.23084,113.60423 1.09326,-120.11913 z"
       id="path4618" />
    <path
       id="path4620"
       d="m 264.56307,42.76664 27.4436,81.91013 -14.81322,-91.68055 z"
       style="fill:#889b7d;fill-opacity:0.56020945;fill-rule:evenodd;stroke:none;stroke-width:0.78515512px;stroke-linecap:butt;stroke-linejoin:miter;stroke-opacity:1" />
  </g>
</svg>
